<?xml version="1.0" encoding="utf-8"?>
<!-- Generator: Adobe Illustrator 16.0.0, SVG Export Plug-In . SVG Version: 6.00 Build 0)  -->
<!DOCTYPE svg PUBLIC "-//W3C//DTD SVG 1.1//EN" "http://www.w3.org/Graphics/SVG/1.1/DTD/svg11.dtd">
<svg version="1.1" id="Calque_1" xmlns="http://www.w3.org/2000/svg" xmlns:xlink="http://www.w3.org/1999/xlink" x="0px" y="0px"
	 width="61.131px" height="69.044px" viewBox="8.369 5.5 61.131 69.044" enable-background="new 8.369 5.5 61.131 69.044"
	 xml:space="preserve">
<linearGradient id="SVGID_1_" gradientUnits="userSpaceOnUse" x1="296.1543" y1="-376.4878" x2="296.0639" y2="-318.5166" gradientTransform="matrix(1 0 0 -1 -257.6602 -299.96)">
	<stop  offset="0" style="stop-color:#FFFFFF"/>
	<stop  offset="0.6812" style="stop-color:#3A3A39"/>
	<stop  offset="0.839" style="stop-color:#000000"/>
</linearGradient>
<ellipse fill="url(#SVGID_1_)" stroke="#FFFFFF" stroke-miterlimit="10" cx="38.441" cy="43.294" rx="30.073" ry="31.25"/>
<path fill="none" stroke="#E73330" stroke-miterlimit="10" d="M27.363,51.156c0,1.748,25.895,5.703,26.813-0.215"/>
<path fill="none" stroke="#E73330" stroke-miterlimit="10" d="M27.363,50.941c0,5.834,0.301,9.752,0.866,9.752"/>
<line fill="none" stroke="#E73330" stroke-miterlimit="10" x1="28.103" y1="61.082" x2="34.453" y2="57.511"/>
<line fill="none" stroke="#E73330" stroke-miterlimit="10" x1="33.885" y1="57.83" x2="40.77" y2="64.484"/>
<line fill="none" stroke="#E73330" stroke-miterlimit="10" x1="40" y1="64.484" x2="48.945" y2="57.511"/>
<line fill="none" stroke="#E73330" stroke-miterlimit="10" x1="48.493" y1="57.511" x2="54.176" y2="60.998"/>
<line fill="none" stroke="#E73330" stroke-miterlimit="10" x1="54.176" y1="60.998" x2="54.176" y2="50.941"/>
<path fill="none" stroke="#EC6A32" stroke-miterlimit="10" d="M27.77,47.833c-0.076,0.868,19.026,5.425,22.046,0.417"/>
<path fill="none" stroke="#EC6A32" stroke-miterlimit="10" d="M49.814,48.479c0.119-1.336-14.293-3.468-20.445-6.983"/>
<path fill="none" stroke="#EC6A32" stroke-miterlimit="10" d="M29.634,42.044c-0.288,3.269-1.838,5.987-1.838,5.987"/>
<path fill="none" stroke="#65C7F2" stroke-miterlimit="10" d="M50.219,44.004c0-5.416-0.391-9.798-0.871-9.798"/>
<path fill="none" stroke="#65C7F2" stroke-miterlimit="10" d="M49.348,34.206c-14.492-0.997-13.443,1.374-16.16,3.638"/>
<path fill="none" stroke="#65C7F2" stroke-miterlimit="10" d="M50.219,44.004c0-3.664-14.638,1.071-16.903-6.628"/>
<path fill="none" stroke="#A6C837" stroke-miterlimit="10" d="M48.417,31.313c0-12.298-3.56-22.25-7.647-23.946"/>
<path fill="none" stroke="#A6C837" stroke-miterlimit="10" d="M48.945,31.313c0,0-7.902,0-17.667,0"/>
<path fill="none" stroke="#A6C837" stroke-miterlimit="10" d="M31.792,31.313c0-12.298,4.351-23.079,9.231-23.826"/>
<path fill="none" stroke="#252622" stroke-miterlimit="10" d="M35,60.406"/>
<path fill="none" stroke="#252622" stroke-miterlimit="10" d="M31.552,68.102"/>
<path fill="none" stroke="#252622" stroke-miterlimit="10" d="M34.844,60.416"/>
<path fill="none" stroke="#252622" stroke-miterlimit="10" d="M31.278,68.469"/>
<path fill="none" stroke="#252622" stroke-miterlimit="10" d="M34.844,68.469"/>
<path fill="none" stroke="#252622" stroke-miterlimit="10" d="M37.327,62.844"/>
<path fill="none" stroke="#252622" stroke-miterlimit="10" d="M37.327,63.281"/>
<path fill="none" stroke="#252622" stroke-miterlimit="10" d="M34.844,68.469"/>
<path fill="none" stroke="#252622" stroke-miterlimit="10" d="M40,71.594"/>
<path fill="none" stroke="#252622" stroke-miterlimit="10" d="M40.219,65.875"/>
<path fill="none" stroke="#252622" stroke-miterlimit="10" d="M46.531,68.469"/>
<path fill="none" stroke="#252622" stroke-miterlimit="10" d="M44.25,63.281"/>
<path fill="none" stroke="#252622" stroke-miterlimit="10" d="M44.25,63.438"/>
<path fill="none" stroke="#252622" stroke-miterlimit="10" d="M46.531,68.469"/>
<path fill="none" stroke="#252622" stroke-miterlimit="10" d="M50.219,68.469"/>
<path fill="none" stroke="#252622" stroke-miterlimit="10" d="M47.625,61.082"/>
<path fill="none" stroke="#252622" stroke-miterlimit="10" d="M47.625,61.082"/>
<path fill="none" stroke="#252622" stroke-miterlimit="10" d="M50.219,68.469"/>
</svg>
